<svg width="24" height="24" viewBox="0 0 24 24" fill="none" xmlns="http://www.w3.org/2000/svg">
<path d="M15.002 6.96045L15 4.60049C15 4.44136 14.9368 4.28875 14.8243 4.17622C14.7117 4.0637 14.5591 4.00049 14.4 4.00049H4.6C4.44087 4.00049 4.28826 4.0637 4.17574 4.17622C4.06321 4.28875 4 4.44136 4 4.60049V14.4005C4 14.5596 4.06321 14.7122 4.17574 14.8248C4.28826 14.9373 4.44087 15.0005 4.6 15.0005H7.00195M19.4 20.0005H9.6C9.44087 20.0005 9.28826 19.9373 9.17574 19.8248C9.06321 19.7122 9 19.5596 9 19.4005V9.60049C9 9.44136 9.06321 9.28875 9.17574 9.17622C9.28826 9.0637 9.44087 9.00049 9.6 9.00049H19.4C19.5591 9.00049 19.7117 9.0637 19.8243 9.17622C19.9368 9.28875 20 9.44136 20 9.60049V19.4005C20 19.5596 19.9368 19.7122 19.8243 19.8248C19.7117 19.9373 19.5591 20.0005 19.4 20.0005Z" stroke="#171717" stroke-width="1.5" stroke-linecap="round" stroke-linejoin="round"/>
</svg>

