<svg width="24" height="24" viewBox="0 0 24 24" fill="none" xmlns="http://www.w3.org/2000/svg">
<path d="M5.50027 16.0005C10.5003 18.5005 13.5003 18.5005 18.5003 16.0005M15.5003 17.5005L16.5003 19.5005C16.5003 19.5005 20.6713 18.1725 22.0003 16.0005C22.0003 15.0005 22.5303 7.85349 19.0003 5.50049C17.5003 4.50049 15.0003 4.00049 15.0003 4.00049L14.0003 6.00049H12.0003M8.52827 17.5005L7.52827 19.5005C7.52827 19.5005 3.35727 18.1725 2.02827 16.0005C2.02827 15.0005 1.49827 7.85349 5.02827 5.50049C6.52827 4.50049 9.02827 4.00049 9.02827 4.00049L10.0283 6.00049H12.0283M8.50027 14.0005C7.67227 14.0005 7.00027 13.1055 7.00027 12.0005C7.00027 10.8955 7.67227 10.0005 8.50027 10.0005C9.32827 10.0005 10.0003 10.8955 10.0003 12.0005C10.0003 13.1055 9.32827 14.0005 8.50027 14.0005ZM15.5003 14.0005C14.6723 14.0005 14.0003 13.1055 14.0003 12.0005C14.0003 10.8955 14.6723 10.0005 15.5003 10.0005C16.3283 10.0005 17.0003 10.8955 17.0003 12.0005C17.0003 13.1055 16.3283 14.0005 15.5003 14.0005Z" stroke="#171717" stroke-width="1.5" stroke-linecap="round" stroke-linejoin="round"/>
</svg>

