<svg width="24" height="24" viewBox="0 0 24 24" fill="none" xmlns="http://www.w3.org/2000/svg">
<g clip-path="url(#clip0_4064_321)">
<path d="M22 12.0002H23M12 2.00024V1.00024M12 23.0002V22.0002M20 20.0002L19 19.0002M20 4.00024L19 5.00024M4 20.0002L5 19.0002M4 4.00024L5 5.00024M1 12.0002H2M12 18.0002C13.5913 18.0002 15.1174 17.3681 16.2426 16.2429C17.3679 15.1177 18 13.5915 18 12.0002C18 10.4089 17.3679 8.88282 16.2426 7.7576C15.1174 6.63239 13.5913 6.00024 12 6.00024C10.4087 6.00024 8.88258 6.63239 7.75736 7.7576C6.63214 8.88282 6 10.4089 6 12.0002C6 13.5915 6.63214 15.1177 7.75736 16.2429C8.88258 17.3681 10.4087 18.0002 12 18.0002Z" stroke="#949494" stroke-width="1.5" stroke-linecap="round" stroke-linejoin="round"/>
</g>
<defs>
<clipPath id="clip0_4064_321">
<rect width="24" height="24" fill="white"/>
</clipPath>
</defs>
</svg>
